<?xml version="1.0" standalone="no"?>
<!DOCTYPE svg PUBLIC "-//W3C//DTD SVG 20010904//EN"
 "http://www.w3.org/TR/2001/REC-SVG-20010904/DTD/svg10.dtd">
<svg version="1.0" xmlns="http://www.w3.org/2000/svg"
 width="404.000000pt" height="404.000000pt" viewBox="0 0 404.000000 404.000000"
 preserveAspectRatio="xMidYMid meet">
<metadata>
Created by potrace 1.11, written by Peter Selinger 2001-2013
</metadata>
<g transform="translate(0.000000,404.000000) scale(0.100000,-0.100000)"
fill="#000000" stroke="none">
<path d="M1305 3974 c-125 -16 -370 -86 -459 -131 -178 -90 -412 -296 -544
-478 -62 -85 -150 -270 -184 -385 -20 -71 -48 -312 -49 -427 0 -49 -5 -73 -13
-76 -18 -7 -20 -108 -3 -119 9 -6 9 -12 0 -27 -19 -30 -18 -656 1 -718 9 -28
17 -113 20 -203 9 -249 28 -335 121 -535 44 -95 164 -278 236 -358 77 -87 264
-236 364 -292 95 -52 237 -104 358 -131 100 -23 146 -26 427 -33 452 -11 1068
-4 1205 15 314 43 638 223 838 465 130 157 156 195 217 322 119 243 123 284
121 1177 -1 402 -6 746 -12 785 -21 148 -105 376 -185 502 -98 154 -262 310
-468 445 -106 70 -184 108 -291 142 -198 63 -143 60 -940 62 -401 1 -743 0
-760 -2z m-203 -821 c9 -10 19 -29 23 -43 13 -45 58 -119 80 -134 13 -8 60
-27 106 -43 120 -39 230 -39 313 0 69 34 138 95 172 152 13 23 33 50 44 60 18
17 22 17 72 0 87 -28 223 -101 351 -188 152 -104 217 -161 217 -192 0 -22 -67
-131 -110 -180 -10 -11 -43 -58 -75 -105 -70 -103 -132 -170 -159 -170 -11 0
-42 21 -68 47 -26 26 -49 45 -52 42 -2 -2 7 -44 20 -94 13 -49 24 -95 24 -102
0 -6 -52 -69 -115 -140 -79 -88 -119 -142 -130 -172 -14 -42 -14 -43 3 -27 10
9 22 16 27 16 5 0 83 -76 174 -168 91 -92 250 -248 354 -346 103 -98 187 -184
187 -192 0 -36 -184 -143 -305 -177 -33 -10 -81 -24 -107 -31 -57 -17 -80 -12
-117 23 -205 194 -401 398 -401 417 0 33 39 194 55 229 7 16 11 33 8 39 -4 5
-58 6 -132 3 -142 -7 -364 7 -459 29 -96 21 -209 72 -252 113 -74 71 -77 168
-11 374 42 131 64 237 50 237 -5 0 -24 -14 -43 -30 -41 -37 -102 -63 -120 -53
-23 14 -70 75 -140 178 -37 55 -87 129 -112 164 -26 39 -44 76 -44 93 0 77
223 228 510 345 117 47 140 51 162 26z"/>
<path d="M1383 2751 c-36 -23 -60 -83 -49 -126 4 -15 20 -40 35 -56 81 -81
213 -18 198 94 -12 86 -112 133 -184 88z"/>
<path d="M1393 2440 c-54 -22 -82 -129 -47 -178 8 -12 28 -29 44 -37 76 -39
158 6 175 97 5 29 2 40 -20 67 -47 55 -99 72 -152 51z"/>
</g>
</svg>
